%TF.GenerationSoftware,KiCad,Pcbnew,7.0.8*%
%TF.CreationDate,2024-11-20T01:05:03+01:00*%
%TF.ProjectId,PaperBot,50617065-7242-46f7-942e-6b696361645f,rev?*%
%TF.SameCoordinates,Original*%
%TF.FileFunction,Copper,L2,Bot*%
%TF.FilePolarity,Positive*%
%FSLAX46Y46*%
G04 Gerber Fmt 4.6, Leading zero omitted, Abs format (unit mm)*
G04 Created by KiCad (PCBNEW 7.0.8) date 2024-11-20 01:05:03*
%MOMM*%
%LPD*%
G01*
G04 APERTURE LIST*
%ADD10C,0.150000*%
%TA.AperFunction,NonConductor*%
%ADD11C,0.150000*%
%TD*%
%TA.AperFunction,ComponentPad*%
%ADD12C,2.000000*%
%TD*%
%TA.AperFunction,ComponentPad*%
%ADD13C,1.800000*%
%TD*%
%TA.AperFunction,ComponentPad*%
%ADD14R,1.800000X1.800000*%
%TD*%
%TA.AperFunction,SMDPad,CuDef*%
%ADD15R,5.000000X2.000000*%
%TD*%
%TA.AperFunction,SMDPad,CuDef*%
%ADD16C,17.780000*%
%TD*%
%TA.AperFunction,Conductor*%
%ADD17C,0.250000*%
%TD*%
G04 APERTURE END LIST*
D10*
D11*
X133563220Y-57419819D02*
X133563220Y-56419819D01*
X132991792Y-57419819D02*
X133420363Y-56848390D01*
X132991792Y-56419819D02*
X133563220Y-56991247D01*
X132563220Y-57419819D02*
X132563220Y-56419819D01*
X132563220Y-56896009D02*
X131991792Y-56896009D01*
X131991792Y-57419819D02*
X131991792Y-56419819D01*
X131182268Y-56896009D02*
X131515601Y-56896009D01*
X131515601Y-57419819D02*
X131515601Y-56419819D01*
X131515601Y-56419819D02*
X131039411Y-56419819D01*
X129372744Y-57419819D02*
X129944172Y-57419819D01*
X129658458Y-57419819D02*
X129658458Y-56419819D01*
X129658458Y-56419819D02*
X129753696Y-56562676D01*
X129753696Y-56562676D02*
X129848934Y-56657914D01*
X129848934Y-56657914D02*
X129944172Y-56705533D01*
X128420363Y-57419819D02*
X128991791Y-57419819D01*
X128706077Y-57419819D02*
X128706077Y-56419819D01*
X128706077Y-56419819D02*
X128801315Y-56562676D01*
X128801315Y-56562676D02*
X128896553Y-56657914D01*
X128896553Y-56657914D02*
X128991791Y-56705533D01*
X127991791Y-57324580D02*
X127944172Y-57372200D01*
X127944172Y-57372200D02*
X127991791Y-57419819D01*
X127991791Y-57419819D02*
X128039410Y-57372200D01*
X128039410Y-57372200D02*
X127991791Y-57324580D01*
X127991791Y-57324580D02*
X127991791Y-57419819D01*
X127563220Y-56515057D02*
X127515601Y-56467438D01*
X127515601Y-56467438D02*
X127420363Y-56419819D01*
X127420363Y-56419819D02*
X127182268Y-56419819D01*
X127182268Y-56419819D02*
X127087030Y-56467438D01*
X127087030Y-56467438D02*
X127039411Y-56515057D01*
X127039411Y-56515057D02*
X126991792Y-56610295D01*
X126991792Y-56610295D02*
X126991792Y-56705533D01*
X126991792Y-56705533D02*
X127039411Y-56848390D01*
X127039411Y-56848390D02*
X127610839Y-57419819D01*
X127610839Y-57419819D02*
X126991792Y-57419819D01*
X126372744Y-56419819D02*
X126277506Y-56419819D01*
X126277506Y-56419819D02*
X126182268Y-56467438D01*
X126182268Y-56467438D02*
X126134649Y-56515057D01*
X126134649Y-56515057D02*
X126087030Y-56610295D01*
X126087030Y-56610295D02*
X126039411Y-56800771D01*
X126039411Y-56800771D02*
X126039411Y-57038866D01*
X126039411Y-57038866D02*
X126087030Y-57229342D01*
X126087030Y-57229342D02*
X126134649Y-57324580D01*
X126134649Y-57324580D02*
X126182268Y-57372200D01*
X126182268Y-57372200D02*
X126277506Y-57419819D01*
X126277506Y-57419819D02*
X126372744Y-57419819D01*
X126372744Y-57419819D02*
X126467982Y-57372200D01*
X126467982Y-57372200D02*
X126515601Y-57324580D01*
X126515601Y-57324580D02*
X126563220Y-57229342D01*
X126563220Y-57229342D02*
X126610839Y-57038866D01*
X126610839Y-57038866D02*
X126610839Y-56800771D01*
X126610839Y-56800771D02*
X126563220Y-56610295D01*
X126563220Y-56610295D02*
X126515601Y-56515057D01*
X126515601Y-56515057D02*
X126467982Y-56467438D01*
X126467982Y-56467438D02*
X126372744Y-56419819D01*
X125658458Y-56515057D02*
X125610839Y-56467438D01*
X125610839Y-56467438D02*
X125515601Y-56419819D01*
X125515601Y-56419819D02*
X125277506Y-56419819D01*
X125277506Y-56419819D02*
X125182268Y-56467438D01*
X125182268Y-56467438D02*
X125134649Y-56515057D01*
X125134649Y-56515057D02*
X125087030Y-56610295D01*
X125087030Y-56610295D02*
X125087030Y-56705533D01*
X125087030Y-56705533D02*
X125134649Y-56848390D01*
X125134649Y-56848390D02*
X125706077Y-57419819D01*
X125706077Y-57419819D02*
X125087030Y-57419819D01*
X124229887Y-56753152D02*
X124229887Y-57419819D01*
X124467982Y-56372200D02*
X124706077Y-57086485D01*
X124706077Y-57086485D02*
X124087030Y-57086485D01*
D12*
%TO.P,M-,1*%
%TO.N,Net-(D1-K)*%
X138300000Y-67400000D03*
%TD*%
%TO.P,S2,1,A*%
%TO.N,Net-(S1-A-Pad1)*%
X100900000Y-80100000D03*
%TO.P,S2,2,E*%
%TO.N,Net-(D1-A)*%
X100900000Y-77560000D03*
%TO.P,S2,3,A*%
%TO.N,N/C*%
X100900000Y-75020000D03*
%TD*%
D13*
%TO.P,D2,2,A*%
%TO.N,Net-(D1-A)*%
X145250000Y-59990000D03*
D14*
%TO.P,D2,1,K*%
%TO.N,Net-(D1-K)*%
X142710000Y-59990000D03*
%TD*%
D12*
%TO.P,M+,1*%
%TO.N,Net-(D1-A)*%
X105300000Y-67500000D03*
%TD*%
D13*
%TO.P,D1,2,A*%
%TO.N,Net-(D1-A)*%
X113890000Y-59790000D03*
D14*
%TO.P,D1,1,K*%
%TO.N,Net-(D1-K)*%
X111350000Y-59790000D03*
%TD*%
D12*
%TO.P,S1,1,A*%
%TO.N,Net-(S1-A-Pad1)*%
X155900000Y-80200000D03*
%TO.P,S1,2,E*%
%TO.N,Net-(D1-A)*%
X155900000Y-77660000D03*
%TO.P,S1,3,A*%
%TO.N,unconnected-(S1-A-Pad3)*%
X155900000Y-75120000D03*
%TD*%
D15*
%TO.P,U2,*%
%TO.N,Net-(S1-A-Pad1)*%
X140354000Y-85332000D03*
X140354000Y-81776000D03*
%TO.P,U2,1*%
X114460000Y-85332000D03*
X114460000Y-81776000D03*
D16*
%TO.P,U2,2*%
%TO.N,Net-(D1-K)*%
X127400000Y-83300000D03*
%TD*%
D17*
%TO.N,Net-(S1-A-Pad1)*%
X114460000Y-85332000D02*
X114460000Y-81776000D01*
%TO.N,Net-(D1-K)*%
X138300000Y-72400000D02*
X127400000Y-83300000D01*
X138300000Y-67400000D02*
X138300000Y-72400000D01*
X142130000Y-67400000D02*
X138300000Y-67400000D01*
X142710000Y-66820000D02*
X142130000Y-67400000D01*
X142710000Y-59990000D02*
X142710000Y-66820000D01*
%TO.N,Net-(D1-A)*%
X155900000Y-77660000D02*
X145490000Y-67250000D01*
X145490000Y-67250000D02*
X145250000Y-67250000D01*
X121250000Y-54940000D02*
X116400000Y-59790000D01*
X143940000Y-54940000D02*
X121250000Y-54940000D01*
X145250000Y-56250000D02*
X143940000Y-54940000D01*
X145250000Y-59990000D02*
X145250000Y-56250000D01*
X116400000Y-59790000D02*
X113890000Y-59790000D01*
%TO.N,Net-(D1-K)*%
X111590000Y-67490000D02*
X127400000Y-83300000D01*
X111350000Y-67490000D02*
X111590000Y-67490000D01*
X111350000Y-59790000D02*
X111350000Y-67490000D01*
%TO.N,Net-(D1-A)*%
X105300000Y-76600000D02*
X104340000Y-77560000D01*
X145250000Y-67250000D02*
X145250000Y-59990000D01*
X104340000Y-77560000D02*
X100900000Y-77560000D01*
X105300000Y-67500000D02*
X105300000Y-76600000D01*
%TO.N,Net-(S1-A-Pad1)*%
X154324000Y-81776000D02*
X155900000Y-80200000D01*
X140354000Y-85332000D02*
X140354000Y-81776000D01*
X112784000Y-80100000D02*
X114460000Y-81776000D01*
X140354000Y-81776000D02*
X154324000Y-81776000D01*
X100900000Y-80100000D02*
X112784000Y-80100000D01*
%TD*%
M02*
