%TF.GenerationSoftware,KiCad,Pcbnew,7.0.8*%
%TF.CreationDate,2024-11-20T01:05:03+01:00*%
%TF.ProjectId,PaperBot,50617065-7242-46f7-942e-6b696361645f,rev?*%
%TF.SameCoordinates,Original*%
%TF.FileFunction,Soldermask,Bot*%
%TF.FilePolarity,Negative*%
%FSLAX46Y46*%
G04 Gerber Fmt 4.6, Leading zero omitted, Abs format (unit mm)*
G04 Created by KiCad (PCBNEW 7.0.8) date 2024-11-20 01:05:03*
%MOMM*%
%LPD*%
G01*
G04 APERTURE LIST*
%ADD10C,0.150000*%
%ADD11C,2.000000*%
%ADD12C,1.800000*%
%ADD13R,1.800000X1.800000*%
%ADD14R,5.000000X2.000000*%
%ADD15C,17.780000*%
G04 APERTURE END LIST*
D10*
X133563220Y-57419819D02*
X133563220Y-56419819D01*
X132991792Y-57419819D02*
X133420363Y-56848390D01*
X132991792Y-56419819D02*
X133563220Y-56991247D01*
X132563220Y-57419819D02*
X132563220Y-56419819D01*
X132563220Y-56896009D02*
X131991792Y-56896009D01*
X131991792Y-57419819D02*
X131991792Y-56419819D01*
X131182268Y-56896009D02*
X131515601Y-56896009D01*
X131515601Y-57419819D02*
X131515601Y-56419819D01*
X131515601Y-56419819D02*
X131039411Y-56419819D01*
X129372744Y-57419819D02*
X129944172Y-57419819D01*
X129658458Y-57419819D02*
X129658458Y-56419819D01*
X129658458Y-56419819D02*
X129753696Y-56562676D01*
X129753696Y-56562676D02*
X129848934Y-56657914D01*
X129848934Y-56657914D02*
X129944172Y-56705533D01*
X128420363Y-57419819D02*
X128991791Y-57419819D01*
X128706077Y-57419819D02*
X128706077Y-56419819D01*
X128706077Y-56419819D02*
X128801315Y-56562676D01*
X128801315Y-56562676D02*
X128896553Y-56657914D01*
X128896553Y-56657914D02*
X128991791Y-56705533D01*
X127991791Y-57324580D02*
X127944172Y-57372200D01*
X127944172Y-57372200D02*
X127991791Y-57419819D01*
X127991791Y-57419819D02*
X128039410Y-57372200D01*
X128039410Y-57372200D02*
X127991791Y-57324580D01*
X127991791Y-57324580D02*
X127991791Y-57419819D01*
X127563220Y-56515057D02*
X127515601Y-56467438D01*
X127515601Y-56467438D02*
X127420363Y-56419819D01*
X127420363Y-56419819D02*
X127182268Y-56419819D01*
X127182268Y-56419819D02*
X127087030Y-56467438D01*
X127087030Y-56467438D02*
X127039411Y-56515057D01*
X127039411Y-56515057D02*
X126991792Y-56610295D01*
X126991792Y-56610295D02*
X126991792Y-56705533D01*
X126991792Y-56705533D02*
X127039411Y-56848390D01*
X127039411Y-56848390D02*
X127610839Y-57419819D01*
X127610839Y-57419819D02*
X126991792Y-57419819D01*
X126372744Y-56419819D02*
X126277506Y-56419819D01*
X126277506Y-56419819D02*
X126182268Y-56467438D01*
X126182268Y-56467438D02*
X126134649Y-56515057D01*
X126134649Y-56515057D02*
X126087030Y-56610295D01*
X126087030Y-56610295D02*
X126039411Y-56800771D01*
X126039411Y-56800771D02*
X126039411Y-57038866D01*
X126039411Y-57038866D02*
X126087030Y-57229342D01*
X126087030Y-57229342D02*
X126134649Y-57324580D01*
X126134649Y-57324580D02*
X126182268Y-57372200D01*
X126182268Y-57372200D02*
X126277506Y-57419819D01*
X126277506Y-57419819D02*
X126372744Y-57419819D01*
X126372744Y-57419819D02*
X126467982Y-57372200D01*
X126467982Y-57372200D02*
X126515601Y-57324580D01*
X126515601Y-57324580D02*
X126563220Y-57229342D01*
X126563220Y-57229342D02*
X126610839Y-57038866D01*
X126610839Y-57038866D02*
X126610839Y-56800771D01*
X126610839Y-56800771D02*
X126563220Y-56610295D01*
X126563220Y-56610295D02*
X126515601Y-56515057D01*
X126515601Y-56515057D02*
X126467982Y-56467438D01*
X126467982Y-56467438D02*
X126372744Y-56419819D01*
X125658458Y-56515057D02*
X125610839Y-56467438D01*
X125610839Y-56467438D02*
X125515601Y-56419819D01*
X125515601Y-56419819D02*
X125277506Y-56419819D01*
X125277506Y-56419819D02*
X125182268Y-56467438D01*
X125182268Y-56467438D02*
X125134649Y-56515057D01*
X125134649Y-56515057D02*
X125087030Y-56610295D01*
X125087030Y-56610295D02*
X125087030Y-56705533D01*
X125087030Y-56705533D02*
X125134649Y-56848390D01*
X125134649Y-56848390D02*
X125706077Y-57419819D01*
X125706077Y-57419819D02*
X125087030Y-57419819D01*
X124229887Y-56753152D02*
X124229887Y-57419819D01*
X124467982Y-56372200D02*
X124706077Y-57086485D01*
X124706077Y-57086485D02*
X124087030Y-57086485D01*
D11*
%TO.C,M-*%
X138300000Y-67400000D03*
%TD*%
%TO.C,S2*%
X100900000Y-80100000D03*
X100900000Y-77560000D03*
X100900000Y-75020000D03*
%TD*%
D12*
%TO.C,D2*%
X145250000Y-59990000D03*
D13*
X142710000Y-59990000D03*
%TD*%
D11*
%TO.C,M+*%
X105300000Y-67500000D03*
%TD*%
D12*
%TO.C,D1*%
X113890000Y-59790000D03*
D13*
X111350000Y-59790000D03*
%TD*%
D11*
%TO.C,S1*%
X155900000Y-80200000D03*
X155900000Y-77660000D03*
X155900000Y-75120000D03*
%TD*%
D14*
%TO.C,U2*%
X140354000Y-85332000D03*
X140354000Y-81776000D03*
X114460000Y-85332000D03*
X114460000Y-81776000D03*
D15*
X127400000Y-83300000D03*
%TD*%
M02*
